<svg id="Capa_1" data-name="Capa 1" xmlns="http://www.w3.org/2000/svg" viewBox="0 0 197.99 120.41"><defs><style>.cls-1{fill:#1d1d1b;stroke:#1d1d1b;stroke-miterlimit:10;}</style></defs><path class="cls-1" d="M257.37,346.27" transform="translate(-140.72 -327.71)"/><polygon class="cls-1" points="64.48 94.84 64.23 94.84 45.63 95.26 54.28 78.52 54.31 78.51 54.3 78.49 62.92 61.77 63.49 61.76 63.19 61.26 71.57 45.02 72.08 44.03 80.21 28.27 81.84 28.23 99.06 27.84 100.95 27.8 117.91 27.41 120.05 27.37 136.75 26.99 128.97 42.04 128.1 43.73 110.88 44.13 109.26 44.16 91.77 44.56 90.42 44.59 82.15 60.6 81.77 61.34 73.26 77.82 73.13 78.08 64.48 94.84"/><polygon class="cls-1" points="75.51 118.26 74.99 118.27 56.84 118.67 56.08 118.68 38.16 119.08 37.15 119.1 19.49 119.49 18.22 119.51 0.83 119.89 8.91 104.2 9.38 103.3 17.7 87.12 17.93 86.69 26.47 70.09 26.53 70.09 26.5 70.05 35.03 53.49 35.59 53.48 35.29 52.97 43.58 36.89 44.09 35.9 52.13 20.28 52.88 18.82 60.68 3.68 62.83 3.64 79.34 3.27 71.67 18.18 70.8 19.87 62.87 35.26 62.25 36.48 54.08 52.34 53.69 53.08 45.28 69.41 45.14 69.69 36.59 86.28 36.37 86.29 36.49 86.48 28.04 102.89 27.3 102.91 27.69 103.55 28.04 102.89 46.23 102.49 46.5 102.92 46.71 102.48 65.14 102.08 65.28 102.29 65.39 102.08 84.06 101.67 75.51 118.26"/><polygon class="cls-1" points="197.22 0.5 191.4 13.79 189.84 16.9 182.75 31.02 181.44 33.65 174.12 48.25 173.03 50.41 165.47 65.47 164.62 67.16 156.82 82.69 156.84 82.69 156.22 83.9 138.97 84.3 138.4 83.37 137.93 84.33 138.97 84.3 148.19 99.92 148.6 100.62 157.97 116.49 157.74 116.96 139.69 117.39 139.54 117.14 130.04 101.06 129.76 100.59 120.39 84.73 119.97 84.02 119.61 84.76 111.33 101.25 111.19 101.51 102.81 118.25 102.56 118.26 84.5 118.68 92.89 101.93 92.89 101.92 101.31 85.18 101.53 84.69 109.7 68.44 113.39 61.12 149.32 61.58 154.72 50.83 155.69 48.91 163.13 34.08 164.32 31.69 165.37 29.62 169.29 21.79 171.53 17.33 156.06 17.69 153.22 17.75 137.5 18.13 134.91 18.18 118.94 18.56 116.59 18.61 100.38 19 98.28 19.04 83.33 19.39 80.03 19.39 80.83 17.77 81.5 16.41 88.36 2.72 90.73 2.67 106.67 2.3 109.3 2.23 124.98 1.87 127.86 1.8 143.29 1.44 146.41 1.37 161.6 1.01 161.62 1.01 164.97 0.93 179.93 0.59 183.54 0.5 197.22 0.5"/></svg>