<svg width="216" height="73" viewBox="0 0 216 73" fill="none" xmlns="http://www.w3.org/2000/svg">
<g clip-path="url(#clip0_37_2)">
<path d="M65.8331 65.3457H65.7316L58.1848 65.4762L61.6945 60.2732L61.7066 60.2701L61.7026 60.2639L65.2001 55.0671L65.4314 55.064L65.3096 54.9086L68.7098 49.861L68.9167 49.5533L72.2154 44.6549L72.8768 44.6425L79.8638 44.5213L80.6306 44.5088L87.5121 44.3876L88.3804 44.3752L95.1563 44.2571L91.9996 48.9348L91.6466 49.4601L84.6597 49.5844L84.0024 49.5937L76.9059 49.7181L76.3581 49.7274L73.0026 54.7035L72.8484 54.9335L69.3955 60.0557L69.3428 60.1365L65.8331 65.3457Z" fill="white" stroke="white" stroke-miterlimit="10"/>
<path d="M70.4564 72.2514L70.2444 72.2545L62.8428 72.3772L62.5329 72.3803L55.2251 72.5029L54.8133 72.5091L47.6115 72.6287L47.0936 72.6348L40.002 72.7514L43.297 67.939L43.4887 67.6629L46.8816 62.7002L46.9754 62.5683L50.458 57.4768H50.4824L50.4702 57.4646L53.9487 52.3853L54.1771 52.3822L54.0548 52.2258L57.4354 47.2938L57.6434 46.9901L60.9221 42.1992L61.2279 41.7514L64.4088 37.1077L65.2855 37.0954L72.0183 36.9819L68.8905 41.5551L68.5357 42.0735L65.3019 46.7938L65.049 47.168L61.7173 52.0326L61.5583 52.2596L58.1287 57.2683L58.0716 57.3541L54.5849 62.4426L54.4952 62.4457L54.5441 62.5039L51.0982 67.5372L50.7965 67.5433L50.9555 67.7396L51.0982 67.5372L58.5161 67.4145L58.6262 67.5464L58.7118 67.4114L66.2276 67.2887L66.2847 67.3531L66.3295 67.2887L73.9431 67.163L70.4564 72.2514Z" fill="white" stroke="white" stroke-miterlimit="10"/>
<path d="M119.4 36.3757L117.052 40.3982L116.423 41.3395L113.563 45.6132L113.034 46.4092L110.081 50.8282L109.642 51.482L106.592 56.0402L106.249 56.5517L103.102 61.2521H103.11L102.86 61.6183L95.9016 61.7394L95.6716 61.4579L95.482 61.7485L95.9016 61.7394L99.621 66.4671L99.7864 66.679L103.566 71.4823L103.474 71.6246L96.192 71.7547L96.1315 71.6791L92.2992 66.8122L92.1862 66.6699L88.4063 61.8696L88.2369 61.6547L88.0916 61.8786L84.7514 66.8697L84.695 66.9484L81.3144 72.015L81.2136 72.0181L73.9281 72.1452L77.3126 67.0755V67.0724L80.7093 62.0058L80.7981 61.8575L84.0939 56.9391L85.5825 54.7235L100.077 54.8628L102.255 51.6091L102.647 51.028L105.648 46.5394L106.128 45.816L106.551 45.1895L108.133 42.8196L109.036 41.4697L102.796 41.5786L101.65 41.5968L95.3086 41.7118L94.2638 41.7269L87.8214 41.8419L86.8734 41.8571L80.3342 41.9751L79.487 41.9872L73.4561 42.0932H72.1248L72.4476 41.6028L72.7179 41.1912L75.4852 37.0477L76.4413 37.0325L82.8716 36.9205L83.9325 36.8994L90.2579 36.7904L91.4197 36.7692L97.6443 36.6602L98.9029 36.6391L105.031 36.5301H105.039L106.39 36.5059L112.425 36.403L113.881 36.3757H119.4Z" fill="white" stroke="white" stroke-miterlimit="10"/>
</g>
<path d="M136.424 48V36.64H137.544V47.008H144.104V48H136.424ZM145.417 44.56V39.664H146.505V44.368C146.505 45.3173 146.665 46.0267 146.985 46.496C147.316 46.9653 147.801 47.2 148.441 47.2C148.868 47.2 149.278 47.1093 149.673 46.928C150.078 46.736 150.436 46.4693 150.745 46.128C151.054 45.776 151.289 45.3707 151.449 44.912V39.664H152.537V46.688C152.537 46.8373 152.569 46.9493 152.633 47.024C152.697 47.088 152.793 47.1253 152.921 47.136V48C152.793 48.0107 152.692 48.016 152.617 48.016C152.542 48.0267 152.473 48.032 152.409 48.032C152.196 48.0107 152.009 47.9253 151.849 47.776C151.7 47.6267 151.62 47.4453 151.609 47.232L151.577 46.112C151.214 46.752 150.718 47.2533 150.089 47.616C149.47 47.9787 148.798 48.16 148.073 48.16C147.198 48.16 146.537 47.856 146.089 47.248C145.641 46.64 145.417 45.744 145.417 44.56ZM154.997 48V39.664H156.085V48H154.997ZM154.997 37.92V36.32H156.085V37.92H154.997ZM161.217 48.16C160.535 48.16 159.9 48.048 159.313 47.824C158.727 47.6 158.22 47.2587 157.793 46.8L158.241 46.032C158.711 46.4693 159.18 46.7893 159.649 46.992C160.129 47.184 160.636 47.28 161.169 47.28C161.82 47.28 162.348 47.152 162.753 46.896C163.159 46.6293 163.361 46.2507 163.361 45.76C163.361 45.4293 163.26 45.1787 163.057 45.008C162.865 44.8267 162.583 44.6827 162.209 44.576C161.847 44.4587 161.409 44.336 160.897 44.208C160.321 44.048 159.836 43.8827 159.441 43.712C159.057 43.5307 158.764 43.3067 158.561 43.04C158.369 42.7627 158.273 42.4053 158.273 41.968C158.273 41.424 158.407 40.976 158.673 40.624C158.951 40.2613 159.324 39.9893 159.793 39.808C160.273 39.616 160.807 39.52 161.393 39.52C162.033 39.52 162.599 39.6213 163.089 39.824C163.58 40.0267 163.98 40.3093 164.289 40.672L163.761 41.408C163.463 41.0667 163.105 40.816 162.689 40.656C162.284 40.4853 161.831 40.4 161.329 40.4C160.988 40.4 160.663 40.448 160.353 40.544C160.044 40.6293 159.788 40.7787 159.585 40.992C159.393 41.1947 159.297 41.4773 159.297 41.84C159.297 42.1387 159.372 42.3733 159.521 42.544C159.671 42.704 159.895 42.8427 160.193 42.96C160.492 43.0667 160.86 43.184 161.297 43.312C161.927 43.4827 162.476 43.6587 162.945 43.84C163.415 44.0107 163.777 44.2347 164.033 44.512C164.289 44.7893 164.417 45.1787 164.417 45.68C164.417 46.4587 164.124 47.0667 163.537 47.504C162.951 47.9413 162.177 48.16 161.217 48.16ZM136.424 67V55.64H141.224C141.715 55.64 142.163 55.7413 142.568 55.944C142.973 56.1467 143.325 56.424 143.624 56.776C143.933 57.1173 144.168 57.5013 144.328 57.928C144.499 58.344 144.584 58.7707 144.584 59.208C144.584 59.752 144.477 60.264 144.264 60.744C144.061 61.224 143.768 61.6293 143.384 61.96C143.011 62.2907 142.568 62.5093 142.056 62.616L144.84 67H143.576L140.904 62.808H137.544V67H136.424ZM137.544 61.816H141.256C141.704 61.816 142.093 61.6933 142.424 61.448C142.755 61.2027 143.011 60.8827 143.192 60.488C143.373 60.0827 143.464 59.656 143.464 59.208C143.464 58.7493 143.357 58.328 143.144 57.944C142.941 57.5493 142.664 57.2347 142.312 57C141.971 56.7547 141.587 56.632 141.16 56.632H137.544V61.816ZM149.955 67.16C149.358 67.16 148.803 67.048 148.291 66.824C147.79 66.5893 147.352 66.2747 146.979 65.88C146.616 65.4747 146.334 65.016 146.131 64.504C145.928 63.9813 145.827 63.432 145.827 62.856C145.827 62.2587 145.928 61.704 146.131 61.192C146.334 60.6693 146.622 60.2107 146.995 59.816C147.368 59.4107 147.806 59.096 148.307 58.872C148.819 58.6373 149.374 58.52 149.971 58.52C150.568 58.52 151.118 58.6373 151.619 58.872C152.12 59.096 152.558 59.4107 152.931 59.816C153.304 60.2107 153.592 60.6693 153.795 61.192C153.998 61.704 154.099 62.2587 154.099 62.856C154.099 63.432 153.998 63.9813 153.795 64.504C153.592 65.016 153.304 65.4747 152.931 65.88C152.568 66.2747 152.131 66.5893 151.619 66.824C151.118 67.048 150.563 67.16 149.955 67.16ZM146.931 62.872C146.931 63.4907 147.064 64.056 147.331 64.568C147.608 65.0693 147.976 65.4693 148.435 65.768C148.894 66.056 149.4 66.2 149.955 66.2C150.51 66.2 151.016 66.0507 151.475 65.752C151.934 65.4533 152.302 65.048 152.579 64.536C152.856 64.0133 152.995 63.448 152.995 62.84C152.995 62.2213 152.856 61.656 152.579 61.144C152.302 60.632 151.934 60.2267 151.475 59.928C151.016 59.6293 150.51 59.48 149.955 59.48C149.4 59.48 148.894 59.6347 148.435 59.944C147.987 60.2533 147.624 60.664 147.347 61.176C147.07 61.6773 146.931 62.2427 146.931 62.872ZM155.359 62.856C155.359 62.0667 155.519 61.3467 155.839 60.696C156.169 60.0347 156.623 59.5067 157.199 59.112C157.775 58.7173 158.431 58.52 159.167 58.52C159.86 58.52 160.479 58.7067 161.023 59.08C161.577 59.4427 162.009 59.8853 162.319 60.408V55.32H163.407V65.688C163.407 65.8373 163.439 65.9493 163.503 66.024C163.567 66.088 163.663 66.1253 163.791 66.136V67C163.577 67.032 163.412 67.0427 163.295 67.032C163.071 67.0213 162.873 66.9307 162.703 66.76C162.532 66.5893 162.447 66.4027 162.447 66.2V65.384C162.116 65.928 161.668 66.36 161.103 66.68C160.537 67 159.951 67.16 159.343 67.16C158.767 67.16 158.233 67.0427 157.743 66.808C157.263 66.5733 156.841 66.2533 156.479 65.848C156.127 65.4427 155.849 64.984 155.647 64.472C155.455 63.9493 155.359 63.4107 155.359 62.856ZM162.319 64.136V61.56C162.18 61.176 161.956 60.8293 161.647 60.52C161.337 60.2 160.985 59.9493 160.591 59.768C160.207 59.576 159.823 59.48 159.439 59.48C158.991 59.48 158.585 59.576 158.223 59.768C157.86 59.9493 157.545 60.2 157.279 60.52C157.023 60.84 156.825 61.2027 156.687 61.608C156.548 62.0133 156.479 62.4293 156.479 62.856C156.479 63.304 156.553 63.7307 156.703 64.136C156.863 64.5413 157.087 64.904 157.375 65.224C157.663 65.5333 157.993 65.7733 158.367 65.944C158.74 66.1147 159.145 66.2 159.583 66.2C159.86 66.2 160.148 66.1467 160.447 66.04C160.745 65.9333 161.028 65.7893 161.295 65.608C161.572 65.416 161.801 65.192 161.983 64.936C162.164 64.68 162.276 64.4133 162.319 64.136ZM170.032 59.624C169.307 59.6453 168.667 59.848 168.112 60.232C167.568 60.616 167.184 61.144 166.96 61.816V67H165.872V58.664H166.896V60.664C167.184 60.0773 167.563 59.6027 168.032 59.24C168.512 58.8773 169.019 58.6747 169.552 58.632C169.659 58.6213 169.749 58.616 169.824 58.616C169.909 58.616 169.979 58.6213 170.032 58.632V59.624ZM171.481 67V58.664H172.569V67H171.481ZM171.481 56.92V55.32H172.569V56.92H171.481ZM178.31 67.112C177.744 67.112 177.222 66.9947 176.742 66.76C176.262 66.5253 175.846 66.2107 175.494 65.816C175.152 65.4107 174.886 64.952 174.694 64.44C174.502 63.928 174.406 63.4 174.406 62.856C174.406 62.2693 174.496 61.72 174.678 61.208C174.87 60.6853 175.136 60.2213 175.478 59.816C175.83 59.4107 176.24 59.096 176.71 58.872C177.179 58.6373 177.702 58.52 178.278 58.52C178.992 58.52 179.611 58.7013 180.134 59.064C180.667 59.4267 181.115 59.8747 181.478 60.408V58.664H182.454V67.032C182.454 67.8 182.267 68.4453 181.894 68.968C181.531 69.5013 181.035 69.9013 180.406 70.168C179.787 70.4347 179.11 70.568 178.374 70.568C177.424 70.568 176.656 70.3973 176.07 70.056C175.483 69.7147 175.003 69.256 174.63 68.68L175.302 68.152C175.632 68.6747 176.07 69.064 176.614 69.32C177.168 69.576 177.755 69.704 178.374 69.704C178.918 69.704 179.414 69.6027 179.862 69.4C180.32 69.208 180.683 68.9147 180.95 68.52C181.227 68.1253 181.366 67.6293 181.366 67.032V65.384C181.046 65.9067 180.608 66.328 180.054 66.648C179.499 66.9573 178.918 67.112 178.31 67.112ZM178.614 66.2C178.944 66.2 179.259 66.1413 179.558 66.024C179.867 65.9067 180.15 65.752 180.406 65.56C180.662 65.3573 180.875 65.1333 181.046 64.888C181.216 64.6427 181.323 64.392 181.366 64.136V61.56C181.206 61.1547 180.976 60.7973 180.678 60.488C180.379 60.168 180.038 59.9227 179.654 59.752C179.28 59.5707 178.891 59.48 178.486 59.48C178.016 59.48 177.595 59.5813 177.222 59.784C176.859 59.976 176.55 60.2373 176.294 60.568C176.048 60.888 175.856 61.2507 175.718 61.656C175.579 62.0613 175.51 62.4667 175.51 62.872C175.51 63.32 175.59 63.7467 175.75 64.152C175.91 64.5467 176.128 64.904 176.406 65.224C176.694 65.5333 177.024 65.7733 177.398 65.944C177.782 66.1147 178.187 66.2 178.614 66.2ZM184.776 63.56V58.664H185.864V63.368C185.864 64.3173 186.024 65.0267 186.344 65.496C186.675 65.9653 187.16 66.2 187.8 66.2C188.227 66.2 188.638 66.1093 189.032 65.928C189.438 65.736 189.795 65.4693 190.104 65.128C190.414 64.776 190.648 64.3707 190.808 63.912V58.664H191.896V65.688C191.896 65.8373 191.928 65.9493 191.992 66.024C192.056 66.088 192.152 66.1253 192.28 66.136V67C192.152 67.0107 192.051 67.016 191.976 67.016C191.902 67.0267 191.832 67.032 191.768 67.032C191.555 67.0107 191.368 66.9253 191.208 66.776C191.059 66.6267 190.979 66.4453 190.968 66.232L190.936 65.112C190.574 65.752 190.078 66.2533 189.448 66.616C188.83 66.9787 188.158 67.16 187.432 67.16C186.558 67.16 185.896 66.856 185.448 66.248C185 65.64 184.776 64.744 184.776 63.56ZM197.956 67.16C197.359 67.16 196.804 67.048 196.292 66.824C195.78 66.5893 195.338 66.2747 194.964 65.88C194.591 65.4747 194.298 65.0107 194.084 64.488C193.882 63.9653 193.78 63.4053 193.78 62.808C193.78 62.0293 193.956 61.3147 194.308 60.664C194.671 60.0133 195.167 59.496 195.796 59.112C196.426 58.7173 197.14 58.52 197.94 58.52C198.762 58.52 199.476 58.7173 200.084 59.112C200.703 59.5067 201.188 60.0293 201.54 60.68C201.892 61.32 202.068 62.024 202.068 62.792C202.068 62.8773 202.068 62.9627 202.068 63.048C202.068 63.1227 202.063 63.1813 202.052 63.224H194.916C194.97 63.8213 195.135 64.3547 195.412 64.824C195.7 65.2827 196.068 65.6507 196.516 65.928C196.975 66.1947 197.471 66.328 198.004 66.328C198.548 66.328 199.06 66.1893 199.54 65.912C200.031 65.6347 200.372 65.272 200.564 64.824L201.508 65.08C201.338 65.4747 201.076 65.832 200.724 66.152C200.372 66.472 199.956 66.7227 199.476 66.904C199.007 67.0747 198.5 67.16 197.956 67.16ZM194.884 62.44H201.044C201.002 61.832 200.836 61.2987 200.548 60.84C200.271 60.3813 199.903 60.024 199.444 59.768C198.996 59.5013 198.5 59.368 197.956 59.368C197.412 59.368 196.916 59.5013 196.468 59.768C196.02 60.024 195.652 60.3867 195.364 60.856C195.087 61.3147 194.927 61.8427 194.884 62.44ZM202.934 66.264L208.518 59.48H203.062V58.664H209.75V59.4L204.198 66.184H209.734V67H202.934V66.264Z" fill="white"/>
<defs>
<clipPath id="clip0_37_2">
<rect width="120" height="73" fill="white"/>
</clipPath>
</defs>
</svg>
